<svg viewBox="0 0 512 512" xmlns="http://www.w3.org/2000/svg">
  <path fill="#000000" d="M 50 150 L 50 320 L 90 320 C 90 353 116 380 150 380 C 184 380 210 353 210 320 L 300 320 C 300 353 326 380 360 380 C 394 380 420 353 420 320 L 460 320 L 460 220 L 400 150 L 340 150 L 340 100 L 50 100 Z M 340 200 L 380 200 L 400 230 L 400 270 L 340 270 Z M 150 300 C 133 300 120 313 120 330 C 120 347 133 360 150 360 C 167 360 180 347 180 330 C 180 313 167 300 150 300 Z M 360 300 C 343 300 330 313 330 330 C 330 347 343 360 360 360 C 377 360 390 347 390 330 C 390 313 377 300 360 300 Z"/>
</svg>